<svg xmlns="http://www.w3.org/2000/svg" viewBox="0 0 600 200.5"><defs><style>.cls-1{fill:#111;}.cls-2{fill:#fff;}.cls-3{fill:#b3b3b3;}</style></defs><g id="Layer_2" data-name="Layer 2"><g id="Layer_1-2" data-name="Layer 1"><rect class="cls-1" width="600" height="150"/><rect class="cls-2" y="150.5" width="600" height="50"/><rect class="cls-3" x="50" y="70.5" width="500" height="130"/><path d="M98,129.26h-7.8l-1.49,3.6h-4l7.49-16.8h3.84l7.51,16.8H99.48Zm-1.22-2.95-2.67-6.43-2.66,6.43Z"/><path d="M116,120.58a6,6,0,0,1,2.32,2.33,7.69,7.69,0,0,1,0,7,6,6,0,0,1-2.32,2.33,6.56,6.56,0,0,1-3.27.82,5,5,0,0,1-4.06-1.68v1.49h-3.57V115.05h3.74v6.27a5,5,0,0,1,3.89-1.56A6.56,6.56,0,0,1,116,120.58ZM114.39,129a4.11,4.11,0,0,0,0-5.21,3.36,3.36,0,0,0-4.72,0,4.11,4.11,0,0,0,0,5.21,3.36,3.36,0,0,0,4.72,0Z"/><path d="M133.33,121.2a5.72,5.72,0,0,1,1.48,4.27v7.39h-3.75V126a3.37,3.37,0,0,0-.67-2.29,2.49,2.49,0,0,0-1.95-.75,3,3,0,0,0-2.25.87,3.66,3.66,0,0,0-.84,2.61v6.38H121.6V115.05h3.75v6.24a5,5,0,0,1,1.8-1.14,6.57,6.57,0,0,1,2.3-.39A5.33,5.33,0,0,1,133.33,121.2Z"/><path d="M138.38,117.55a2,2,0,0,1,0-3,2.37,2.37,0,0,1,1.68-.6,2.45,2.45,0,0,1,1.68.58,1.84,1.84,0,0,1,.65,1.44,2.06,2.06,0,0,1-.65,1.55,2.33,2.33,0,0,1-1.68.61A2.37,2.37,0,0,1,138.38,117.55Zm-.19,2.4h3.74v12.91h-3.74Z"/><path d="M145.41,115.05h3.75v17.81h-3.75Z"/><path d="M162.45,121.19a5.45,5.45,0,0,1,1.61,4.3v7.37h-3.5v-1.61c-.71,1.2-2,1.8-3.94,1.8a6.06,6.06,0,0,1-2.58-.5,3.91,3.91,0,0,1-1.67-1.39,3.66,3.66,0,0,1-.57-2,3.37,3.37,0,0,1,1.35-2.83,6.91,6.91,0,0,1,4.19-1h3a2.38,2.38,0,0,0-.75-1.89,3.26,3.26,0,0,0-2.23-.66,6.44,6.44,0,0,0-2,.33,5.39,5.39,0,0,0-1.69.87l-1.34-2.61a7.86,7.86,0,0,1,2.53-1.15,11,11,0,0,1,3-.41A6.68,6.68,0,0,1,162.45,121.19Zm-3.19,8.9a2.43,2.43,0,0,0,1.06-1.31v-1.32h-2.57c-1.54,0-2.31.5-2.31,1.51a1.34,1.34,0,0,0,.57,1.14,2.53,2.53,0,0,0,1.55.42A3.22,3.22,0,0,0,159.26,130.09Z"/><path d="M168.64,132.66a8.27,8.27,0,0,1-2.44-1l1.24-2.69a7.88,7.88,0,0,0,2.09.9,8.5,8.5,0,0,0,2.4.35c1.59,0,2.38-.39,2.38-1.18a.84.84,0,0,0-.65-.79,9.6,9.6,0,0,0-2-.4,18.8,18.8,0,0,1-2.62-.56,4,4,0,0,1-1.79-1.1,3.16,3.16,0,0,1-.75-2.26,3.49,3.49,0,0,1,.71-2.17,4.55,4.55,0,0,1,2.06-1.47,8.62,8.62,0,0,1,3.2-.53,12.62,12.62,0,0,1,2.73.3,7.39,7.39,0,0,1,2.24.83l-1.25,2.66a7.42,7.42,0,0,0-3.72-1,3.71,3.71,0,0,0-1.8.34,1,1,0,0,0-.6.86.86.86,0,0,0,.65.84,11.17,11.17,0,0,0,2.07.45,22.93,22.93,0,0,1,2.59.57,3.9,3.9,0,0,1,1.75,1.09,3.09,3.09,0,0,1,.74,2.21,3.38,3.38,0,0,1-.72,2.13,4.61,4.61,0,0,1-2.1,1.46,9.44,9.44,0,0,1-3.27.51A12.82,12.82,0,0,1,168.64,132.66Z"/><path d="M191.91,121.2a5.68,5.68,0,0,1,1.48,4.27v7.39h-3.75V126a3.37,3.37,0,0,0-.67-2.29A2.47,2.47,0,0,0,187,123a3,3,0,0,0-2.26.87,3.66,3.66,0,0,0-.84,2.61v6.38h-3.74V115.05h3.74v6.24a5.22,5.22,0,0,1,1.8-1.14,6.63,6.63,0,0,1,2.31-.39A5.29,5.29,0,0,1,191.91,121.2Z"/><path d="M219.24,116.06v16.8H216l-8.37-10.2v10.2h-3.84v-16.8H207l8.36,10.2v-10.2Z"/><path d="M235.53,127.46h-9.77a3.11,3.11,0,0,0,1.25,1.9,4.17,4.17,0,0,0,2.45.69,5,5,0,0,0,1.79-.3,4.35,4.35,0,0,0,1.45-.94l2,2.15a6.66,6.66,0,0,1-5.33,2.09,8.4,8.4,0,0,1-3.86-.85,6.24,6.24,0,0,1-2.59-2.36,6.49,6.49,0,0,1-.91-3.43,6.57,6.57,0,0,1,.9-3.42,6.28,6.28,0,0,1,2.47-2.38,7.69,7.69,0,0,1,6.95,0,6.09,6.09,0,0,1,2.41,2.34,7,7,0,0,1,.87,3.54S235.58,126.84,235.53,127.46Zm-8.76-4.15a3.06,3.06,0,0,0-1.05,2h6.36a3.1,3.1,0,0,0-1.06-2,3.15,3.15,0,0,0-2.11-.73A3.24,3.24,0,0,0,226.77,123.31Z"/><path d="M251.42,120V130.7q0,3.56-1.85,5.28a7.63,7.63,0,0,1-5.4,1.73,13.23,13.23,0,0,1-3.55-.46,7.57,7.57,0,0,1-2.78-1.32l1.48-2.68a6.3,6.3,0,0,0,2.07,1.06,8,8,0,0,0,2.49.4,4,4,0,0,0,2.87-.88,3.46,3.46,0,0,0,.93-2.65v-.55a5.26,5.26,0,0,1-4.08,1.61,6.88,6.88,0,0,1-3.26-.78,6,6,0,0,1-2.34-2.2,6.63,6.63,0,0,1,0-6.53,6,6,0,0,1,2.34-2.19,6.88,6.88,0,0,1,3.26-.78,5.11,5.11,0,0,1,4.27,1.85V120Zm-4.64,8.34a3.26,3.26,0,0,0,0-4.58,3.84,3.84,0,0,0-4.89,0,3.21,3.21,0,0,0,0,4.58,3.84,3.84,0,0,0,4.89,0Z"/><path d="M255.09,117.55a2,2,0,0,1,0-3,2.37,2.37,0,0,1,1.68-.6,2.45,2.45,0,0,1,1.68.58,1.84,1.84,0,0,1,.65,1.44,2.06,2.06,0,0,1-.65,1.55,2.33,2.33,0,0,1-1.68.61A2.37,2.37,0,0,1,255.09,117.55Zm-.19,2.4h3.74v12.91H254.9Z"/><path d="M92.78,156.27H87.41v5.66H85.72v-12.8h7.93v1.38H87.41v4.38h5.37Z"/><path d="M99.78,153.88a4,4,0,0,0-.8-.07,2.14,2.14,0,0,0-2.17,1.37v6.75H95.18v-9.51h1.59l0,1.09a2.56,2.56,0,0,1,2.27-1.27,1.67,1.67,0,0,1,.72.12Z"/><path d="M100.67,157.08a5.54,5.54,0,0,1,.55-2.51,4,4,0,0,1,1.53-1.72,4.1,4.1,0,0,1,2.23-.61,4,4,0,0,1,3.15,1.34,5.18,5.18,0,0,1,1.2,3.58v.12a5.62,5.62,0,0,1-.54,2.49,4,4,0,0,1-1.52,1.72,4.19,4.19,0,0,1-2.27.61,4,4,0,0,1-3.13-1.34,5.17,5.17,0,0,1-1.2-3.56Zm1.63.2a4.08,4.08,0,0,0,.74,2.54,2.49,2.49,0,0,0,3.93,0,4.4,4.4,0,0,0,.73-2.72,4.09,4.09,0,0,0-.74-2.53,2.37,2.37,0,0,0-2-1,2.35,2.35,0,0,0-1.94.95A4.46,4.46,0,0,0,102.3,157.28Z"/><path d="M112.9,152.42l.06,1.19a3.46,3.46,0,0,1,2.84-1.37c2,0,3,1.13,3,3.4v6.29h-1.62v-6.3a2.21,2.21,0,0,0-.47-1.52,1.89,1.89,0,0,0-1.44-.49,2.36,2.36,0,0,0-1.39.42,2.8,2.8,0,0,0-.93,1.11v6.78h-1.63v-9.51Z"/><path d="M123.5,150.11v2.31h1.78v1.25H123.5v5.91a1.32,1.32,0,0,0,.24.86,1,1,0,0,0,.81.28,3.84,3.84,0,0,0,.77-.1v1.31a5,5,0,0,1-1.25.17,2,2,0,0,1-1.64-.66,2.82,2.82,0,0,1-.55-1.87v-5.9h-1.74v-1.25h1.74v-2.31Z"/><path d="M134.66,156h-5.54v4.54h6.44v1.38h-8.13v-12.8h8v1.38h-6.35v4.12h5.54Z"/><path d="M138.94,152.42l.06,1.19a3.46,3.46,0,0,1,2.84-1.37q3,0,3,3.4v6.29h-1.63v-6.3a2.21,2.21,0,0,0-.47-1.52,1.89,1.89,0,0,0-1.44-.49A2.38,2.38,0,0,0,140,154a2.89,2.89,0,0,0-.93,1.11v6.78h-1.62v-9.51Z"/><path d="M146.94,157.09a5.58,5.58,0,0,1,1-3.52,3.53,3.53,0,0,1,5.36-.19v-4.95H155v13.5h-1.5l-.08-1a3.32,3.32,0,0,1-2.71,1.19,3.27,3.27,0,0,1-2.7-1.35,5.66,5.66,0,0,1-1-3.54Zm1.63.19a4.2,4.2,0,0,0,.67,2.53,2.14,2.14,0,0,0,1.84.91,2.37,2.37,0,0,0,2.26-1.39V155a2.4,2.4,0,0,0-2.24-1.34,2.16,2.16,0,0,0-1.86.92A4.64,4.64,0,0,0,148.57,157.28Z"/><path d="M162.2,161.93v-12.8h3.61a5.86,5.86,0,0,1,3,.74,5,5,0,0,1,2,2.1,7,7,0,0,1,.71,3.13v.81a7,7,0,0,1-.7,3.18,4.92,4.92,0,0,1-2,2.09,6.22,6.22,0,0,1-3,.75Zm1.69-11.42v10h1.77a3.87,3.87,0,0,0,3-1.22,5,5,0,0,0,1.09-3.45v-.75a5.09,5.09,0,0,0-1-3.39,3.62,3.62,0,0,0-2.9-1.23Z"/><path d="M177.7,162.1a4.15,4.15,0,0,1-3.15-1.27,4.7,4.7,0,0,1-1.21-3.4v-.29a5.7,5.7,0,0,1,.54-2.53,4.21,4.21,0,0,1,1.51-1.74,3.8,3.8,0,0,1,2.1-.63,3.59,3.59,0,0,1,2.89,1.22,5.33,5.33,0,0,1,1,3.5v.68H175a3.45,3.45,0,0,0,.82,2.27,2.58,2.58,0,0,0,2,.86,2.77,2.77,0,0,0,1.46-.35,3.56,3.56,0,0,0,1-.93l1,.77A4,4,0,0,1,177.7,162.1Zm-.21-8.52a2.2,2.2,0,0,0-1.65.71,3.57,3.57,0,0,0-.83,2h4.77v-.12a3.09,3.09,0,0,0-.67-1.92A2,2,0,0,0,177.49,153.58Z"/><path d="M186.31,159.72l2.35-7.3h1.67l-3.41,9.51h-1.24l-3.45-9.51h1.66Z"/><path d="M195.84,162.1a4.15,4.15,0,0,1-3.15-1.27,4.7,4.7,0,0,1-1.21-3.4v-.29a5.7,5.7,0,0,1,.54-2.53,4.21,4.21,0,0,1,1.51-1.74,3.8,3.8,0,0,1,2.1-.63,3.59,3.59,0,0,1,2.89,1.22,5.33,5.33,0,0,1,1,3.5v.68H193.1a3.45,3.45,0,0,0,.82,2.27,2.59,2.59,0,0,0,2,.86,2.77,2.77,0,0,0,1.46-.35,3.56,3.56,0,0,0,1.05-.93l1,.77A4,4,0,0,1,195.84,162.1Zm-.21-8.52a2.2,2.2,0,0,0-1.65.71,3.49,3.49,0,0,0-.82,2h4.76v-.12a3.09,3.09,0,0,0-.67-1.92A2,2,0,0,0,195.63,153.58Z"/><path d="M203.19,161.93h-1.62v-13.5h1.62Z"/><path d="M205.36,157.08a5.68,5.68,0,0,1,.55-2.51,4.06,4.06,0,0,1,3.77-2.33,4,4,0,0,1,3.14,1.34,5.18,5.18,0,0,1,1.2,3.58v.12a5.75,5.75,0,0,1-.53,2.49,4.1,4.1,0,0,1-1.52,1.72,4.22,4.22,0,0,1-2.27.61,4,4,0,0,1-3.14-1.34,5.17,5.17,0,0,1-1.2-3.56Zm1.64.2a4.07,4.07,0,0,0,.73,2.54,2.5,2.5,0,0,0,3.94,0,4.47,4.47,0,0,0,.72-2.72,4,4,0,0,0-.74-2.53,2.47,2.47,0,0,0-3.91,0A4.39,4.39,0,0,0,207,157.28Z"/><path d="M224.09,157.28a5.69,5.69,0,0,1-1,3.49,3.17,3.17,0,0,1-2.69,1.33,3.46,3.46,0,0,1-2.72-1.1v4.58h-1.63V152.42h1.48l.08,1.05a3.37,3.37,0,0,1,2.76-1.23,3.26,3.26,0,0,1,2.72,1.29,5.79,5.79,0,0,1,1,3.6Zm-1.62-.19a4.18,4.18,0,0,0-.69-2.54,2.21,2.21,0,0,0-1.88-.93,2.39,2.39,0,0,0-2.21,1.31v4.54a2.38,2.38,0,0,0,2.23,1.3,2.19,2.19,0,0,0,1.86-.92A4.6,4.6,0,0,0,222.47,157.09Z"/><path d="M230.1,162.1a4.14,4.14,0,0,1-3.14-1.27,4.7,4.7,0,0,1-1.21-3.4v-.29a5.7,5.7,0,0,1,.54-2.53,4.21,4.21,0,0,1,1.51-1.74,3.77,3.77,0,0,1,2.1-.63,3.59,3.59,0,0,1,2.89,1.22,5.33,5.33,0,0,1,1,3.5v.68h-6.44a3.4,3.4,0,0,0,.82,2.27,2.58,2.58,0,0,0,2,.86,2.77,2.77,0,0,0,1.46-.35,3.56,3.56,0,0,0,1-.93l1,.77A4,4,0,0,1,230.1,162.1Zm-.2-8.52a2.2,2.2,0,0,0-1.65.71,3.5,3.5,0,0,0-.83,2h4.77v-.12a3.09,3.09,0,0,0-.67-1.92A2,2,0,0,0,229.9,153.58Z"/><path d="M240.29,153.88a4,4,0,0,0-.8-.07,2.14,2.14,0,0,0-2.17,1.37v6.75h-1.63v-9.51h1.59l0,1.09a2.56,2.56,0,0,1,2.27-1.27,1.67,1.67,0,0,1,.72.12Z"/><path d="M247.86,164.3h-1.31V149.13h1.31Z"/><path d="M260,156.75h-3v5.18h-1.7v-12.8h4.24a5,5,0,0,1,3.32,1,3.54,3.54,0,0,1,1.17,2.87,3.43,3.43,0,0,1-.65,2.08,3.85,3.85,0,0,1-1.8,1.33l3,5.43v.11h-1.81Zm-3-1.38h2.59a3,3,0,0,0,2-.65,2.24,2.24,0,0,0,.74-1.75,2.32,2.32,0,0,0-.71-1.82,3,3,0,0,0-2-.64H257Z"/><path d="M270.11,162.1a4.11,4.11,0,0,1-3.14-1.27,4.71,4.71,0,0,1-1.22-3.4v-.29a5.7,5.7,0,0,1,.54-2.53,4.23,4.23,0,0,1,1.52-1.74,3.75,3.75,0,0,1,2.1-.63,3.56,3.56,0,0,1,2.88,1.22,5.28,5.28,0,0,1,1,3.5v.68h-6.44a3.4,3.4,0,0,0,.82,2.27,2.58,2.58,0,0,0,2,.86,2.8,2.8,0,0,0,1.46-.35,3.56,3.56,0,0,0,1-.93l1,.77A4,4,0,0,1,270.11,162.1Zm-.2-8.52a2.17,2.17,0,0,0-1.65.71,3.5,3.5,0,0,0-.83,2h4.77v-.12a3.09,3.09,0,0,0-.67-1.92A2,2,0,0,0,269.91,153.58Z"/><path d="M281.57,161.93a3.69,3.69,0,0,1-.23-1,3.59,3.59,0,0,1-2.7,1.18,3.36,3.36,0,0,1-2.31-.79,2.59,2.59,0,0,1-.9-2,2.7,2.7,0,0,1,1.13-2.31,5.3,5.3,0,0,1,3.18-.82h1.58v-.75a1.83,1.83,0,0,0-.51-1.36,2.07,2.07,0,0,0-1.5-.5,2.39,2.39,0,0,0-1.46.44,1.28,1.28,0,0,0-.59,1.06h-1.64a2.22,2.22,0,0,1,.51-1.37,3.4,3.4,0,0,1,1.37-1.05,4.58,4.58,0,0,1,1.9-.39,3.75,3.75,0,0,1,2.58.82,3,3,0,0,1,1,2.27v4.37a5.42,5.42,0,0,0,.34,2.09v.14Zm-2.69-1.24a2.93,2.93,0,0,0,1.45-.4,2.45,2.45,0,0,0,1-1v-1.95H280c-2,0-3,.58-3,1.75a1.49,1.49,0,0,0,.51,1.2A2,2,0,0,0,278.88,160.69Z"/><path d="M289.31,160.77a2.36,2.36,0,0,0,1.52-.52,1.87,1.87,0,0,0,.72-1.32h1.54a2.92,2.92,0,0,1-.57,1.55,3.54,3.54,0,0,1-1.38,1.18,4.21,4.21,0,0,1-4.92-.86,5.11,5.11,0,0,1-1.15-3.54V157a5.71,5.71,0,0,1,.51-2.47,3.93,3.93,0,0,1,1.46-1.68,4.17,4.17,0,0,1,2.26-.6,3.81,3.81,0,0,1,2.66,1,3.47,3.47,0,0,1,1.13,2.49h-1.54a2.24,2.24,0,0,0-.7-1.52,2.16,2.16,0,0,0-1.55-.59,2.25,2.25,0,0,0-1.92.89,4.13,4.13,0,0,0-.68,2.58v.31a4.14,4.14,0,0,0,.67,2.53A2.31,2.31,0,0,0,289.31,160.77Z"/><path d="M297.12,150.11v2.31h1.78v1.25h-1.78v5.91a1.32,1.32,0,0,0,.24.86,1,1,0,0,0,.81.28,3.93,3.93,0,0,0,.77-.1v1.31a5,5,0,0,1-1.25.17,2,2,0,0,1-1.64-.66,2.82,2.82,0,0,1-.55-1.87v-5.9h-1.74v-1.25h1.74v-2.31Z"/></g></g></svg>