<svg xmlns="http://www.w3.org/2000/svg" viewBox="0 0 432.47 400"><defs><style>.cls-1{fill:#fc7575;}.cls-2{fill:#1b1464;}.cls-3{fill:#2a417f;}.cls-4{fill:#59d5b3;}.cls-5{fill:#2846a6;}.cls-6{fill:#fd5e5a;}.cls-7{fill:#5c2c55;}.cls-8{fill:#0f1d5b;}.cls-9{fill:#ff8d8d;}.cls-10{fill:#59f6d1;}.cls-11{fill:#6a6a6a;}.cls-12{fill:#4e4f56;}.cls-13{fill:#0d232b;}.cls-14{fill:#2c1f67;}.cls-15{fill:#6265a8;}.cls-16{fill:#a4d6c9;}.cls-17{fill:lime;}.cls-18{fill:#381a3f;}.cls-19{fill:#39b54a;}.cls-20{fill:#778099;}.cls-20,.cls-21{opacity:0.53;}.cls-22{fill:#d1d1d1;}.cls-23{fill:#565454;}.cls-24{fill:#4e5389;}.cls-25{fill:#363a68;}.cls-26{fill:#464a7f;}.cls-27{fill:red;}</style></defs><g id="Layer_2" data-name="Layer 2"><g id="Layer_1-2" data-name="Layer 1"><path class="cls-1" d="M347,170.12s-18.84,23.29-22.92,23.74-33.45-10.15-33.45-10.15l-10.78-5.66-7-8.8s9.81-1,11.86,1c1.81,1.71,1.93,3.86,5.07,5.32s26.46,7.07,29.13,4.26S343.51,153,349.61,146.6s11.61-14.92,13.29-9.95C365.53,144.46,356.69,158.29,347,170.12Z"/><path class="cls-2" d="M372,256.42s-15.15,112.39-18.28,124.32l-.31,7.61-20.33-.87s1.33-2.49,3.63-2.39,8.21-2.4,9.88-4.23S352,223,352,223L377.2,224Z"/><path class="cls-3" d="M355.78,232.84l2.81,18.26s24.32,99.29,21.7,133.51c0,0-2.55,4-11,6-.46.11-1.41,2.62-1.41,2.62h22.37l-1-6.95s4-116.65,4.54-130.23-2.27-31.4-2.27-31.4l-36.76-1.58Z"/><path class="cls-4" d="M357,159.05,342,176l-19-1s30-47,39.46-45.39C364,129.88,357,159.05,357,159.05Z"/><path class="cls-4" d="M347,170c2.3-16.45,6.3-31.95,10.49-38.56a9.78,9.78,0,0,1,5-1.83c1.59,0-5.5,29.44-5.5,29.44Z"/><path class="cls-4" d="M349.39,198c1.34-33.39,7.58-66.35,15.26-70.26,4.45,0,5.57,0,10.06,0,6.7.07,16.87,3.8,21.69,22.45,4.38,17,.81,67.87-1,92.8-18.91-.81-32.72-2-51.07-2.79C344.31,234.38,349,208.52,349.39,198Z"/><path class="cls-5" d="M357,96.12a5.66,5.66,0,0,1,2.35-.87l-.49-.87S357,95.14,357,96.12Z"/><path class="cls-1" d="M363,116.6l1.33,16.27c.28,3.34,2.61,5.82,5.36,5.72.69,0,1.41-.09,2.15-.19,3.67-.5,7.14-3.59,6.47-8-.87-5.7-2.91-15.19-2.79-20.18C375.7,102,363.05,112.44,363,116.6Z"/><path class="cls-6" d="M375.51,110.18c.19-8.16-12.46,2.26-12.52,6.42l.78,9.51a30.79,30.79,0,0,0,6.43-1.68c3.36-1.35,3.64-5.59,5.63-6.75a2.74,2.74,0,0,0,.31-.23A47,47,0,0,1,375.51,110.18Z"/><path class="cls-7" d="M347.34,89.47c3.58,2.35,10.62,5.79,13.3,2.46-2.4,3.82-10.2,1.16-14.26-.81Z"/><path class="cls-6" d="M357.63,99.93s-4.4-3.39-3.7-.46,2.84,9.22,5.22,6.78S357.63,99.93,357.63,99.93Z"/><path class="cls-1" d="M366.92,85.92c-.61.59-7.2,0-9.47,6.84s0,22.58,4.12,26.85,9,1.71,12.81-5.34,11.21-16.06,6-22.91C377.6,87.73,366.92,85.92,366.92,85.92Z"/><path class="cls-7" d="M358.73,114.17s1.89,4.61-.06,6.52,5.52,2.75,8,2.11,5.79-1.23,6.77-2c2.09-1.69,1.95-17,.47-13.33s-4.93,10.12-6.34,10.1-3.23.32-4.67.3S358.73,114.17,358.73,114.17Z"/><path class="cls-7" d="M365.85,89c-.66,3.6-4.3,8.51-12.75,3s-6.66-12.38-6.66-12.38,4.24,5.72,6.9,4.56.84-7.94.84-7.94,9.61-.57,11.42-.54,3.54,5.71,3.54,5.71-1.19-2.55,8.31-3.24,3.72,13.47,4.73,18.43-5.57,13.58-5.61,16.47a7.61,7.61,0,0,0,1.49,4.72s-2.05.45-3.78-4.63S376,100.57,376,96.72c.07-4.68-2.09-6.39-4-7.87C370.58,87.75,366.5,85.35,365.85,89Z"/><path class="cls-1" d="M375.66,101.53s-3.57,6.36-1.11,5.9,7.36-3.7,6.36-8.29S375.66,101.53,375.66,101.53Z"/><path class="cls-6" d="M375.66,101.53s2.17-2,2.87-1.29c1.64,1.7-3.9,6.39-3.88,5.11A16.18,16.18,0,0,1,375.66,101.53Z"/><path class="cls-5" d="M367.06,99.9c0,1-.61,1.77-1.33,1.76s-1.28-.81-1.26-1.8.6-1.76,1.32-1.75S367.07,98.92,367.06,99.9Z"/><path class="cls-5" d="M359.51,99.79c0,1-.61,1.77-1.33,1.75s-1.28-.81-1.26-1.79.6-1.77,1.32-1.76S359.52,98.81,359.51,99.79Z"/><path class="cls-5" d="M365.85,93.76l-.41,1.13a3.08,3.08,0,0,1,3.21,1S367.43,93.52,365.85,93.76Z"/><path class="cls-8" d="M360,99.14l-.05,3a2.46,2.46,0,0,1-2.4,2.52l-4.05-.06a2.48,2.48,0,0,1-2.32-2.6l.05-3a2.46,2.46,0,0,1,2.4-2.52l4.05.06A2.47,2.47,0,0,1,360,99.14Zm-1.09,0a1.33,1.33,0,0,0-1.25-1.4l-4.05-.06A1.33,1.33,0,0,0,352.32,99l-.05,3a1.34,1.34,0,0,0,1.25,1.4l4.05.06a1.33,1.33,0,0,0,1.29-1.36Z"/><path class="cls-8" d="M372.74,99.29l-.05,3.13A2.69,2.69,0,0,1,369.9,105l-4.72-.08a2.68,2.68,0,0,1-2.71-2.66l0-3.12a2.69,2.69,0,0,1,2.79-2.58l4.72.07A2.69,2.69,0,0,1,372.74,99.29Zm-1.27,0A1.45,1.45,0,0,0,370,97.84l-4.72-.07a1.45,1.45,0,0,0-1.5,1.39l-.05,3.12a1.44,1.44,0,0,0,1.46,1.43l4.72.08a1.45,1.45,0,0,0,1.5-1.39Z"/><path class="cls-5" d="M360.15,110c0-.06-1.67-5.06.64-12.81a.32.32,0,0,1,.61.17c0,.07-2,6.86-.78,11.93,1.86-.25,2.56-.71,2.67-.19S362.57,109.46,360.15,110Z"/><rect class="cls-8" x="360.61" y="98.19" width="1.11" height="3.28" transform="translate(255.78 459.41) rotate(-89.12)"/><path class="cls-7" d="M362,70.18c2.85.15,5.73,1.37,7,3.81a9.43,9.43,0,0,1,.81,5.59l-.35,1.79-.63-.1a16.73,16.73,0,0,0,0-3.48c-.51-3.89-3.22-5.64-6.92-5.45Z"/><path class="cls-5" d="M362.47,113.06c0,1,.49,1.87,1.09,1.87s1.09-.83,1.09-1.87-.49-1.87-1.09-1.87S362.47,112,362.47,113.06Z"/><path class="cls-9" d="M384.58,130.79s30.37-.43,30.37-3-28.61-12.76-30.18-14.2-2.85-.14-6.14-3.15a36.7,36.7,0,0,1-4.27-1.36c-1.34-.62-.07-1.51,1.43-1.51s3,.34,3.66.34-.52-3.14-.52-4.37-2.4-4.93-4.57-4.93-4.11-.82-3.59-1.3,8.68.55,8.91.76,4.94,8.68,7,10.53,43.75,6.68,45.74,17.53S402.14,153.58,396,152.67,378.39,131.15,384.58,130.79Z"/><path class="cls-6" d="M416.66,144.15l-7.27-14.71c1.06-.13,2-.28,2.81-.44l8,12.81C419.08,142.62,417.88,143.4,416.66,144.15Z"/><path class="cls-4" d="M411.42,127.75l10.48,19.6s-21.8,5.82-26,5.82-13.29-12.77-13.74-17.84.33-5.72.33-5.72Z"/><path class="cls-10" d="M381.91,129.33c.16,0,16.26-1.71,29.51-1.58-6.23.87-16.81,1.91-28.45,2.56a16.17,16.17,0,0,0-.19,4.4c.09,4,4.32,10.45,6.64,13.65-3-3-7.73-9.44-7.94-13.55a26.29,26.29,0,0,1-.13-2.68A9.82,9.82,0,0,1,381.91,129.33Z"/><path class="cls-10" d="M362.47,129.61S357,129,348,141c0,0,6-8,12-10,0,0-10,10-7,28C353,159,350.93,137.22,362.47,129.61Z"/><ellipse class="cls-4" cx="154.68" cy="387.98" rx="139.82" ry="12.02"/><rect class="cls-11" x="70.99" width="164.81" height="380.85" transform="translate(306.8 380.85) rotate(180)"/><polygon class="cls-12" points="70.99 0 70.99 380.85 235.81 380.85 75.78 376.46 70.99 0"/><rect class="cls-13" x="91.78" y="22.29" width="121.77" height="335.03" transform="translate(305.34 379.6) rotate(180)"/><rect class="cls-14" x="191.26" y="63.85" width="22.29" height="7.01" transform="translate(404.82 134.71) rotate(180)"/><rect class="cls-14" x="91.78" y="63.85" width="23.01" height="7.01" transform="translate(206.58 134.71) rotate(180)"/><rect class="cls-14" x="91.78" y="112.43" width="23.01" height="7.01" transform="translate(206.58 231.87) rotate(180)"/><rect class="cls-14" x="91.78" y="161" width="23.01" height="7.01" transform="translate(206.58 329.02) rotate(180)"/><rect class="cls-14" x="91.78" y="209.58" width="23.01" height="7.01" transform="translate(206.58 426.18) rotate(180)"/><rect class="cls-14" x="91.78" y="258.16" width="22.29" height="7.01" transform="translate(205.86 523.33) rotate(180)"/><rect class="cls-14" x="91.78" y="306.74" width="22.29" height="7.01" transform="translate(205.86 620.48) rotate(180)"/><rect class="cls-14" x="191.26" y="112.43" width="22.29" height="7.01" transform="translate(404.82 231.87) rotate(180)"/><rect class="cls-14" x="191.26" y="161" width="22.29" height="7.01" transform="translate(404.82 329.02) rotate(180)"/><rect class="cls-14" x="191.26" y="209.58" width="22.29" height="7.01" transform="translate(404.82 426.18) rotate(180)"/><rect class="cls-14" x="190.54" y="258.16" width="23.01" height="7.01" transform="translate(404.1 523.33) rotate(180)"/><rect class="cls-14" x="190.54" y="306.74" width="23.01" height="7.01" transform="translate(404.1 620.48) rotate(180)"/><rect class="cls-15" x="91.78" y="331.27" width="121.77" height="27.04" transform="translate(305.34 689.59) rotate(180)"/><ellipse class="cls-14" cx="202.77" cy="339.66" rx="3.84" ry="3.88"/><path class="cls-14" d="M188.29,339.66a3.84,3.84,0,1,0,3.84-3.88A3.86,3.86,0,0,0,188.29,339.66Z"/><ellipse class="cls-14" cx="181.49" cy="339.66" rx="3.84" ry="3.88"/><path class="cls-14" d="M167,339.66a3.84,3.84,0,1,0,3.84-3.88A3.86,3.86,0,0,0,167,339.66Z"/><ellipse class="cls-14" cx="160.2" cy="339.66" rx="3.84" ry="3.88"/><ellipse class="cls-14" cx="149.56" cy="339.66" rx="3.84" ry="3.88"/><path class="cls-14" d="M135.09,339.66a3.84,3.84,0,1,0,3.83-3.88A3.85,3.85,0,0,0,135.09,339.66Z"/><path class="cls-14" d="M124.45,339.66a3.84,3.84,0,1,0,3.83-3.88A3.85,3.85,0,0,0,124.45,339.66Z"/><ellipse class="cls-14" cx="117.64" cy="339.66" rx="3.84" ry="3.88"/><ellipse class="cls-14" cx="107" cy="339.66" rx="3.84" ry="3.88"/><ellipse class="cls-14" cx="202.77" cy="349.68" rx="3.84" ry="3.88"/><path class="cls-14" d="M188.29,349.68a3.84,3.84,0,1,0,3.84-3.88A3.86,3.86,0,0,0,188.29,349.68Z"/><ellipse class="cls-14" cx="181.49" cy="349.68" rx="3.84" ry="3.88"/><path class="cls-14" d="M167,349.68a3.84,3.84,0,1,0,3.84-3.88A3.86,3.86,0,0,0,167,349.68Z"/><ellipse class="cls-14" cx="160.2" cy="349.68" rx="3.84" ry="3.88"/><ellipse class="cls-14" cx="149.56" cy="349.68" rx="3.84" ry="3.88"/><path class="cls-14" d="M135.09,349.68a3.84,3.84,0,1,0,3.83-3.88A3.85,3.85,0,0,0,135.09,349.68Z"/><path class="cls-14" d="M124.45,349.68a3.84,3.84,0,1,0,3.83-3.88A3.85,3.85,0,0,0,124.45,349.68Z"/><ellipse class="cls-14" cx="117.64" cy="349.68" rx="3.84" ry="3.88"/><ellipse class="cls-14" cx="107" cy="349.68" rx="3.84" ry="3.88"/><rect class="cls-16" x="95.62" y="29.8" width="115.57" height="17.03" transform="translate(306.8 76.62) rotate(180)"/><rect class="cls-16" x="95.62" y="46.82" width="115.57" height="17.03" transform="translate(306.8 110.68) rotate(180)"/><rect class="cls-14" x="170.1" y="33.8" width="37.12" height="7.51" transform="translate(377.33 75.12) rotate(180)"/><rect class="cls-14" x="170.1" y="51.58" width="37.12" height="7.51" transform="translate(377.33 110.68) rotate(180)"/><path class="cls-14" d="M146.28,49.45a1.18,1.18,0,1,0,1.18-1.19A1.18,1.18,0,0,0,146.28,49.45Z"/><path class="cls-14" d="M142.08,49.45a1.18,1.18,0,1,0,2.35,0,1.18,1.18,0,1,0-2.35,0Z"/><path class="cls-14" d="M137.87,49.45a1.18,1.18,0,1,0,1.18-1.19A1.18,1.18,0,0,0,137.87,49.45Z"/><path class="cls-14" d="M133.66,49.45a1.18,1.18,0,1,0,1.18-1.19A1.18,1.18,0,0,0,133.66,49.45Z"/><path class="cls-14" d="M129.46,49.45a1.18,1.18,0,1,0,2.35,0,1.18,1.18,0,1,0-2.35,0Z"/><path class="cls-14" d="M125.25,49.45a1.18,1.18,0,1,0,1.18-1.19A1.18,1.18,0,0,0,125.25,49.45Z"/><path class="cls-14" d="M121,49.45a1.18,1.18,0,1,0,1.18-1.19A1.18,1.18,0,0,0,121,49.45Z"/><path class="cls-14" d="M116.84,49.45a1.18,1.18,0,1,0,2.35,0,1.18,1.18,0,1,0-2.35,0Z"/><path class="cls-14" d="M112.63,49.45a1.18,1.18,0,1,0,1.18-1.19A1.18,1.18,0,0,0,112.63,49.45Z"/><path class="cls-14" d="M146.28,52.77a1.18,1.18,0,1,0,1.18-1.19A1.18,1.18,0,0,0,146.28,52.77Z"/><path class="cls-14" d="M142.08,52.77a1.18,1.18,0,1,0,1.17-1.19A1.18,1.18,0,0,0,142.08,52.77Z"/><path class="cls-14" d="M137.87,52.77a1.18,1.18,0,1,0,1.18-1.19A1.18,1.18,0,0,0,137.87,52.77Z"/><path class="cls-14" d="M133.66,52.77a1.18,1.18,0,1,0,1.18-1.19A1.18,1.18,0,0,0,133.66,52.77Z"/><path class="cls-14" d="M129.46,52.77a1.18,1.18,0,1,0,1.17-1.19A1.18,1.18,0,0,0,129.46,52.77Z"/><path class="cls-14" d="M125.25,52.77a1.18,1.18,0,1,0,1.18-1.19A1.18,1.18,0,0,0,125.25,52.77Z"/><path class="cls-14" d="M121,52.77a1.18,1.18,0,1,0,1.18-1.19A1.18,1.18,0,0,0,121,52.77Z"/><path class="cls-14" d="M116.84,52.77A1.18,1.18,0,1,0,118,51.58,1.18,1.18,0,0,0,116.84,52.77Z"/><path class="cls-14" d="M112.63,52.77a1.18,1.18,0,1,0,1.18-1.19A1.18,1.18,0,0,0,112.63,52.77Z"/><path class="cls-14" d="M146.28,56.09a1.18,1.18,0,1,0,1.18-1.19A1.18,1.18,0,0,0,146.28,56.09Z"/><path class="cls-14" d="M142.08,56.09a1.18,1.18,0,1,0,1.17-1.19A1.18,1.18,0,0,0,142.08,56.09Z"/><path class="cls-14" d="M137.87,56.09a1.18,1.18,0,1,0,1.18-1.19A1.18,1.18,0,0,0,137.87,56.09Z"/><path class="cls-14" d="M133.66,56.09a1.18,1.18,0,1,0,1.18-1.19A1.18,1.18,0,0,0,133.66,56.09Z"/><path class="cls-14" d="M129.46,56.09a1.18,1.18,0,1,0,1.17-1.19A1.18,1.18,0,0,0,129.46,56.09Z"/><path class="cls-14" d="M125.25,56.09a1.18,1.18,0,1,0,1.18-1.19A1.18,1.18,0,0,0,125.25,56.09Z"/><path class="cls-14" d="M121,56.09a1.18,1.18,0,1,0,1.18-1.19A1.18,1.18,0,0,0,121,56.09Z"/><path class="cls-14" d="M116.84,56.09A1.18,1.18,0,1,0,118,54.9,1.18,1.18,0,0,0,116.84,56.09Z"/><path class="cls-14" d="M112.63,56.09a1.18,1.18,0,1,0,1.18-1.19A1.18,1.18,0,0,0,112.63,56.09Z"/><path class="cls-14" d="M146.28,59.41a1.18,1.18,0,1,0,1.18-1.19A1.19,1.19,0,0,0,146.28,59.41Z"/><path class="cls-14" d="M142.08,59.41a1.18,1.18,0,1,0,1.17-1.19A1.18,1.18,0,0,0,142.08,59.41Z"/><path class="cls-14" d="M137.87,59.41a1.18,1.18,0,1,0,2.35,0,1.18,1.18,0,1,0-2.35,0Z"/><path class="cls-14" d="M133.66,59.41a1.18,1.18,0,1,0,1.18-1.19A1.19,1.19,0,0,0,133.66,59.41Z"/><path class="cls-14" d="M129.46,59.41a1.18,1.18,0,1,0,1.17-1.19A1.18,1.18,0,0,0,129.46,59.41Z"/><path class="cls-14" d="M125.25,59.41a1.18,1.18,0,1,0,2.35,0,1.18,1.18,0,1,0-2.35,0Z"/><path class="cls-14" d="M121,59.41a1.18,1.18,0,1,0,2.35,0,1.18,1.18,0,1,0-2.35,0Z"/><path class="cls-14" d="M116.84,59.41A1.18,1.18,0,1,0,118,58.22,1.18,1.18,0,0,0,116.84,59.41Z"/><path class="cls-14" d="M112.63,59.41a1.18,1.18,0,1,0,1.18-1.19A1.19,1.19,0,0,0,112.63,59.41Z"/><path class="cls-14" d="M146.28,33.33a1.18,1.18,0,1,0,1.18-1.18A1.18,1.18,0,0,0,146.28,33.33Z"/><path class="cls-14" d="M142.08,33.33a1.18,1.18,0,1,0,1.17-1.18A1.18,1.18,0,0,0,142.08,33.33Z"/><path class="cls-14" d="M137.87,33.33a1.18,1.18,0,1,0,1.18-1.18A1.18,1.18,0,0,0,137.87,33.33Z"/><path class="cls-14" d="M133.66,33.33a1.18,1.18,0,1,0,1.18-1.18A1.18,1.18,0,0,0,133.66,33.33Z"/><path class="cls-14" d="M129.46,33.33a1.18,1.18,0,1,0,1.17-1.18A1.18,1.18,0,0,0,129.46,33.33Z"/><path class="cls-14" d="M125.25,33.33a1.18,1.18,0,1,0,1.18-1.18A1.18,1.18,0,0,0,125.25,33.33Z"/><path class="cls-14" d="M121,33.33a1.18,1.18,0,1,0,1.18-1.18A1.18,1.18,0,0,0,121,33.33Z"/><path class="cls-14" d="M116.84,33.33A1.18,1.18,0,1,0,118,32.15,1.18,1.18,0,0,0,116.84,33.33Z"/><path class="cls-14" d="M112.63,33.33a1.18,1.18,0,1,0,1.18-1.18A1.18,1.18,0,0,0,112.63,33.33Z"/><path class="cls-14" d="M146.28,36.65a1.18,1.18,0,1,0,1.18-1.19A1.18,1.18,0,0,0,146.28,36.65Z"/><path class="cls-14" d="M142.08,36.65a1.18,1.18,0,1,0,1.17-1.19A1.18,1.18,0,0,0,142.08,36.65Z"/><path class="cls-14" d="M137.87,36.65a1.18,1.18,0,1,0,1.18-1.19A1.18,1.18,0,0,0,137.87,36.65Z"/><path class="cls-14" d="M133.66,36.65a1.18,1.18,0,1,0,1.18-1.19A1.18,1.18,0,0,0,133.66,36.65Z"/><path class="cls-14" d="M129.46,36.65a1.18,1.18,0,1,0,1.17-1.19A1.18,1.18,0,0,0,129.46,36.65Z"/><ellipse class="cls-14" cx="126.43" cy="36.65" rx="1.18" ry="1.19"/><path class="cls-14" d="M121,36.65a1.18,1.18,0,1,0,1.18-1.19A1.18,1.18,0,0,0,121,36.65Z"/><path class="cls-14" d="M116.84,36.65A1.18,1.18,0,1,0,118,35.46,1.18,1.18,0,0,0,116.84,36.65Z"/><ellipse class="cls-14" cx="113.81" cy="36.65" rx="1.18" ry="1.19"/><path class="cls-14" d="M146.28,40a1.18,1.18,0,1,0,1.18-1.19A1.18,1.18,0,0,0,146.28,40Z"/><path class="cls-14" d="M142.08,40a1.18,1.18,0,1,0,1.17-1.19A1.18,1.18,0,0,0,142.08,40Z"/><path class="cls-14" d="M137.87,40a1.18,1.18,0,1,0,1.18-1.19A1.18,1.18,0,0,0,137.87,40Z"/><path class="cls-14" d="M133.66,40a1.18,1.18,0,1,0,1.18-1.19A1.18,1.18,0,0,0,133.66,40Z"/><path class="cls-14" d="M129.46,40a1.18,1.18,0,1,0,1.17-1.19A1.18,1.18,0,0,0,129.46,40Z"/><path class="cls-14" d="M125.25,40a1.18,1.18,0,1,0,1.18-1.19A1.18,1.18,0,0,0,125.25,40Z"/><path class="cls-14" d="M121,40a1.18,1.18,0,1,0,1.18-1.19A1.18,1.18,0,0,0,121,40Z"/><path class="cls-14" d="M116.84,40A1.18,1.18,0,1,0,118,38.78,1.18,1.18,0,0,0,116.84,40Z"/><path class="cls-14" d="M112.63,40a1.18,1.18,0,1,0,1.18-1.19A1.18,1.18,0,0,0,112.63,40Z"/><path class="cls-14" d="M146.28,43.29a1.18,1.18,0,1,0,1.18-1.19A1.19,1.19,0,0,0,146.28,43.29Z"/><path class="cls-14" d="M142.08,43.29a1.18,1.18,0,1,0,1.17-1.19A1.18,1.18,0,0,0,142.08,43.29Z"/><path class="cls-14" d="M137.87,43.29a1.18,1.18,0,1,0,2.35,0,1.18,1.18,0,1,0-2.35,0Z"/><path class="cls-14" d="M133.66,43.29a1.18,1.18,0,1,0,1.18-1.19A1.19,1.19,0,0,0,133.66,43.29Z"/><path class="cls-14" d="M129.46,43.29a1.18,1.18,0,1,0,1.17-1.19A1.18,1.18,0,0,0,129.46,43.29Z"/><ellipse class="cls-14" cx="126.43" cy="43.29" rx="1.18" ry="1.19"/><path class="cls-14" d="M121,43.29a1.18,1.18,0,1,0,2.35,0,1.18,1.18,0,1,0-2.35,0Z"/><path class="cls-14" d="M116.84,43.29A1.18,1.18,0,1,0,118,42.1,1.18,1.18,0,0,0,116.84,43.29Z"/><ellipse class="cls-14" cx="113.81" cy="43.29" rx="1.18" ry="1.19"/><rect class="cls-17" x="182.35" y="35.46" width="23.66" height="3.32" transform="translate(388.37 74.24) rotate(180)"/><rect class="cls-17" x="182.35" y="53.68" width="23.66" height="3.32" transform="translate(388.37 110.68) rotate(180)"/><polygon class="cls-18" points="211.18 46.82 95.62 46.82 95.62 29.8 96.95 44.48 211.18 46.82"/><path class="cls-19" d="M147.07,279.78l1.4-.49c-.3-.87-24.43-72.19-23.39-107.85,11.71,12.8,38.43,26.29,56.28,20.09,5.2-1.8,8.09-4.69,8.58-8.58,1.45-11.41-18.17-27.1-23.5-30.68-10.67-7.15-26.12-10.69-37.51.84-2.92,3-4.5,8.06-5.08,14.58a32,32,0,0,1-7.14-18c-2-37.28,31.79-47.56,32.13-47.66l-.41-1.44c-.35.1-35.25,10.69-33.2,49.18.43,8,4,14.73,8.47,20.06C121.83,205.18,145.83,276.15,147.07,279.78Zm18.55-126.26c10.74,7.21,35.22,29.67,15.26,36.59-17.24,6-44.26-7.46-55.7-20.81.41-6.85,1.88-12.18,4.8-15.13C140,144,153.81,145.6,165.62,153.52Z"/><rect class="cls-20" y="23.55" width="90.66" height="335.03" transform="translate(90.66 382.13) rotate(180)"/><g class="cls-21"><polygon class="cls-22" points="24.45 23.55 90.66 107.5 90.66 124.13 11.34 23.55 24.45 23.55"/><polygon class="cls-22" points="0 44.11 90.66 166.94 90.66 184.26 0 61.42 0 44.11"/><polygon class="cls-22" points="0 121.74 90.66 234.05 90.66 250.44 0 138.14 0 121.74"/></g><polygon class="cls-22" points="0 23.55 0 358.58 90.66 358.58 6.16 350.54 0 23.55"/><polygon class="cls-11" points="263.35 216.05 263.35 285.02 323.64 285.02 323.64 216.05 329.89 216.05 329.89 388.29 323.64 388.29 323.64 289.81 263.35 289.81 263.35 388.29 257.1 388.29 257.1 216.05 263.35 216.05"/><rect class="cls-23" x="323.64" y="216.05" width="6.25" height="12.02"/><rect class="cls-11" x="252.73" y="207.19" width="82.47" height="13.65" transform="translate(587.92 428.03) rotate(180)"/><polygon class="cls-24" points="302.87 158.14 308.43 202.77 256.16 202.77 246.48 158.14 302.87 158.14"/><polygon class="cls-25" points="302.87 158.14 308.43 202.77 256.16 202.77 306.39 200.11 302.87 158.14"/><rect class="cls-26" x="256.16" y="202.77" width="78.25" height="5.17" transform="translate(590.58 410.7) rotate(180)"/><rect x="269.43" y="204.34" width="3.04" height="3.15" transform="translate(541.9 411.82) rotate(180)"/><rect x="263.69" y="204.34" width="3.04" height="3.15" transform="translate(530.42 411.82) rotate(180)"/><path class="cls-27" d="M259.55,243.37c10.49-10.59,12.12-37.46,12.19-38.8l-1.45-.09c0,.32-1.61,26.61-11.21,37.24-2.58-8.6-7.37-19.21-15.52-20.41-9.63-1.42-10.22,11.73-4.41,20.06,5.22,7.49,13.44,7.94,19.21,3.1a80.89,80.89,0,0,1,1.78,8.36c2.13,13.89-5.18,24.43-18.62,26.85C229.28,281.87,215,282,205,275c-7.73-5.41-13.79-14.4-22-25-4.84-6.25-21.4-33.31-26.63-42h-2c24.83,41.39,42.22,62.82,49.61,68,10,7,25,7.44,37.76,5.15,14.08-2.53,22-14,19.8-28.55A86.18,86.18,0,0,0,259.55,243.37Zm-19.22-2.87c-3.42-4.91-4.49-11.82-2.4-15.42,2.76-4.73,13.55-4.33,20,17.8C252.66,247.69,245.17,247.45,240.33,240.5Z"/><path class="cls-19" d="M264.73,205.78c-.19.43-18.5,43.92-49.72,40.22-9.45-1.12-35.57-27-45.47-38h-2.08c10.4,11.74,36.66,36.92,46.65,39.31,2.9.69,2.66.23,3.95.23,29.88,0,47.79-40.71,48-41.14Z"/><rect class="cls-16" x="98.09" y="175.31" width="112.9" height="17.03" transform="translate(309.09 367.65) rotate(180)"/><rect class="cls-16" x="98.09" y="192.34" width="112.9" height="17.03" transform="translate(309.09 401.71) rotate(180)"/><rect class="cls-14" x="170.86" y="179.32" width="36.27" height="7.51" transform="translate(377.99 366.15) rotate(180)"/><rect class="cls-14" x="170.86" y="197.1" width="36.27" height="7.51" transform="translate(377.99 401.71) rotate(180)"/><path class="cls-14" d="M147.59,195a1.15,1.15,0,1,0,1.15-1.19A1.17,1.17,0,0,0,147.59,195Z"/><path class="cls-14" d="M143.48,195a1.15,1.15,0,1,0,1.15-1.19A1.17,1.17,0,0,0,143.48,195Z"/><path class="cls-14" d="M139.37,195a1.15,1.15,0,1,0,1.15-1.19A1.17,1.17,0,0,0,139.37,195Z"/><path class="cls-14" d="M135.26,195a1.15,1.15,0,1,0,1.15-1.19A1.17,1.17,0,0,0,135.26,195Z"/><path class="cls-14" d="M131.15,195a1.15,1.15,0,1,0,1.15-1.19A1.17,1.17,0,0,0,131.15,195Z"/><path class="cls-14" d="M127,195a1.15,1.15,0,1,0,1.15-1.19A1.17,1.17,0,0,0,127,195Z"/><path class="cls-14" d="M122.93,195a1.15,1.15,0,1,0,1.15-1.19A1.17,1.17,0,0,0,122.93,195Z"/><path class="cls-14" d="M118.82,195a1.15,1.15,0,1,0,1.15-1.19A1.17,1.17,0,0,0,118.82,195Z"/><path class="cls-14" d="M114.71,195a1.15,1.15,0,1,0,1.15-1.19A1.17,1.17,0,0,0,114.71,195Z"/><path class="cls-14" d="M147.59,198.29a1.15,1.15,0,1,0,1.15-1.19A1.18,1.18,0,0,0,147.59,198.29Z"/><path class="cls-14" d="M143.48,198.29a1.15,1.15,0,1,0,1.15-1.19A1.18,1.18,0,0,0,143.48,198.29Z"/><path class="cls-14" d="M139.37,198.29a1.15,1.15,0,1,0,1.15-1.19A1.18,1.18,0,0,0,139.37,198.29Z"/><path class="cls-14" d="M135.26,198.29a1.15,1.15,0,1,0,1.15-1.19A1.18,1.18,0,0,0,135.26,198.29Z"/><path class="cls-14" d="M131.15,198.29a1.15,1.15,0,1,0,1.15-1.19A1.18,1.18,0,0,0,131.15,198.29Z"/><path class="cls-14" d="M127,198.29a1.15,1.15,0,1,0,1.15-1.19A1.18,1.18,0,0,0,127,198.29Z"/><path class="cls-14" d="M122.93,198.29a1.15,1.15,0,1,0,1.15-1.19A1.18,1.18,0,0,0,122.93,198.29Z"/><path class="cls-14" d="M118.82,198.29A1.15,1.15,0,1,0,120,197.1,1.18,1.18,0,0,0,118.82,198.29Z"/><path class="cls-14" d="M114.71,198.29a1.15,1.15,0,1,0,1.15-1.19A1.18,1.18,0,0,0,114.71,198.29Z"/><path class="cls-14" d="M147.59,201.6a1.15,1.15,0,1,0,1.15-1.18A1.17,1.17,0,0,0,147.59,201.6Z"/><path class="cls-14" d="M143.48,201.6a1.15,1.15,0,1,0,1.15-1.18A1.17,1.17,0,0,0,143.48,201.6Z"/><path class="cls-14" d="M139.37,201.6a1.15,1.15,0,1,0,1.15-1.18A1.17,1.17,0,0,0,139.37,201.6Z"/><path class="cls-14" d="M135.26,201.6a1.15,1.15,0,1,0,1.15-1.18A1.17,1.17,0,0,0,135.26,201.6Z"/><path class="cls-14" d="M131.15,201.6a1.15,1.15,0,1,0,1.15-1.18A1.17,1.17,0,0,0,131.15,201.6Z"/><path class="cls-14" d="M127,201.6a1.15,1.15,0,1,0,1.15-1.18A1.17,1.17,0,0,0,127,201.6Z"/><path class="cls-14" d="M122.93,201.6a1.15,1.15,0,1,0,1.15-1.18A1.17,1.17,0,0,0,122.93,201.6Z"/><path class="cls-14" d="M118.82,201.6a1.15,1.15,0,1,0,1.15-1.18A1.17,1.17,0,0,0,118.82,201.6Z"/><path class="cls-14" d="M114.71,201.6a1.15,1.15,0,1,0,1.15-1.18A1.17,1.17,0,0,0,114.71,201.6Z"/><path class="cls-14" d="M147.59,204.92a1.15,1.15,0,1,0,1.15-1.19A1.17,1.17,0,0,0,147.59,204.92Z"/><path class="cls-14" d="M143.48,204.92a1.15,1.15,0,1,0,1.15-1.19A1.17,1.17,0,0,0,143.48,204.92Z"/><path class="cls-14" d="M139.37,204.92a1.15,1.15,0,1,0,1.15-1.19A1.17,1.17,0,0,0,139.37,204.92Z"/><path class="cls-14" d="M135.26,204.92a1.15,1.15,0,1,0,1.15-1.19A1.17,1.17,0,0,0,135.26,204.92Z"/><path class="cls-14" d="M131.15,204.92a1.15,1.15,0,1,0,1.15-1.19A1.17,1.17,0,0,0,131.15,204.92Z"/><path class="cls-14" d="M127,204.92a1.15,1.15,0,1,0,1.15-1.19A1.17,1.17,0,0,0,127,204.92Z"/><path class="cls-14" d="M122.93,204.92a1.15,1.15,0,1,0,1.15-1.19A1.17,1.17,0,0,0,122.93,204.92Z"/><path class="cls-14" d="M118.82,204.92a1.15,1.15,0,1,0,1.15-1.19A1.17,1.17,0,0,0,118.82,204.92Z"/><path class="cls-14" d="M114.71,204.92a1.15,1.15,0,1,0,1.15-1.19A1.17,1.17,0,0,0,114.71,204.92Z"/><path class="cls-14" d="M147.59,178.85a1.15,1.15,0,1,0,1.15-1.19A1.17,1.17,0,0,0,147.59,178.85Z"/><path class="cls-14" d="M143.48,178.85a1.15,1.15,0,1,0,1.15-1.19A1.17,1.17,0,0,0,143.48,178.85Z"/><path class="cls-14" d="M139.37,178.85a1.15,1.15,0,1,0,1.15-1.19A1.17,1.17,0,0,0,139.37,178.85Z"/><path class="cls-14" d="M135.26,178.85a1.15,1.15,0,1,0,1.15-1.19A1.17,1.17,0,0,0,135.26,178.85Z"/><path class="cls-14" d="M131.15,178.85a1.15,1.15,0,1,0,1.15-1.19A1.17,1.17,0,0,0,131.15,178.85Z"/><path class="cls-14" d="M127,178.85a1.15,1.15,0,1,0,1.15-1.19A1.17,1.17,0,0,0,127,178.85Z"/><path class="cls-14" d="M122.93,178.85a1.15,1.15,0,1,0,1.15-1.19A1.17,1.17,0,0,0,122.93,178.85Z"/><path class="cls-14" d="M118.82,178.85a1.15,1.15,0,1,0,1.15-1.19A1.17,1.17,0,0,0,118.82,178.85Z"/><path class="cls-14" d="M114.71,178.85a1.15,1.15,0,1,0,1.15-1.19A1.17,1.17,0,0,0,114.71,178.85Z"/><path class="cls-14" d="M147.59,182.17a1.15,1.15,0,1,0,1.15-1.19A1.17,1.17,0,0,0,147.59,182.17Z"/><path class="cls-14" d="M143.48,182.17a1.15,1.15,0,1,0,1.15-1.19A1.17,1.17,0,0,0,143.48,182.17Z"/><path class="cls-14" d="M139.37,182.17a1.15,1.15,0,1,0,1.15-1.19A1.17,1.17,0,0,0,139.37,182.17Z"/><path class="cls-14" d="M135.26,182.17a1.15,1.15,0,1,0,1.15-1.19A1.17,1.17,0,0,0,135.26,182.17Z"/><path class="cls-14" d="M131.15,182.17A1.15,1.15,0,1,0,132.3,181,1.17,1.17,0,0,0,131.15,182.17Z"/><path class="cls-14" d="M127,182.17a1.15,1.15,0,1,0,1.15-1.19A1.17,1.17,0,0,0,127,182.17Z"/><path class="cls-14" d="M122.93,182.17a1.15,1.15,0,1,0,1.15-1.19A1.17,1.17,0,0,0,122.93,182.17Z"/><path class="cls-14" d="M118.82,182.17A1.15,1.15,0,1,0,120,181,1.17,1.17,0,0,0,118.82,182.17Z"/><path class="cls-14" d="M114.71,182.17a1.15,1.15,0,1,0,1.15-1.19A1.17,1.17,0,0,0,114.71,182.17Z"/><path class="cls-14" d="M147.59,185.49a1.15,1.15,0,1,0,1.15-1.19A1.18,1.18,0,0,0,147.59,185.49Z"/><path class="cls-14" d="M143.48,185.49a1.15,1.15,0,1,0,1.15-1.19A1.18,1.18,0,0,0,143.48,185.49Z"/><path class="cls-14" d="M139.37,185.49a1.15,1.15,0,1,0,1.15-1.19A1.18,1.18,0,0,0,139.37,185.49Z"/><path class="cls-14" d="M135.26,185.49a1.15,1.15,0,1,0,1.15-1.19A1.18,1.18,0,0,0,135.26,185.49Z"/><path class="cls-14" d="M131.15,185.49a1.15,1.15,0,1,0,1.15-1.19A1.18,1.18,0,0,0,131.15,185.49Z"/><path class="cls-14" d="M127,185.49a1.15,1.15,0,1,0,1.15-1.19A1.18,1.18,0,0,0,127,185.49Z"/><path class="cls-14" d="M122.93,185.49a1.15,1.15,0,1,0,1.15-1.19A1.18,1.18,0,0,0,122.93,185.49Z"/><path class="cls-14" d="M118.82,185.49A1.15,1.15,0,1,0,120,184.3,1.18,1.18,0,0,0,118.82,185.49Z"/><path class="cls-14" d="M114.71,185.49a1.15,1.15,0,1,0,1.15-1.19A1.18,1.18,0,0,0,114.71,185.49Z"/><path class="cls-14" d="M147.59,188.8a1.15,1.15,0,1,0,1.15-1.19A1.17,1.17,0,0,0,147.59,188.8Z"/><path class="cls-14" d="M143.48,188.8a1.15,1.15,0,1,0,1.15-1.19A1.17,1.17,0,0,0,143.48,188.8Z"/><path class="cls-14" d="M139.37,188.8a1.15,1.15,0,1,0,1.15-1.19A1.17,1.17,0,0,0,139.37,188.8Z"/><path class="cls-14" d="M135.26,188.8a1.15,1.15,0,1,0,1.15-1.19A1.17,1.17,0,0,0,135.26,188.8Z"/><path class="cls-14" d="M131.15,188.8a1.15,1.15,0,1,0,1.15-1.19A1.17,1.17,0,0,0,131.15,188.8Z"/><path class="cls-14" d="M127,188.8a1.15,1.15,0,1,0,1.15-1.19A1.17,1.17,0,0,0,127,188.8Z"/><path class="cls-14" d="M122.93,188.8a1.15,1.15,0,1,0,1.15-1.19A1.17,1.17,0,0,0,122.93,188.8Z"/><path class="cls-14" d="M118.82,188.8a1.15,1.15,0,1,0,1.15-1.19A1.17,1.17,0,0,0,118.82,188.8Z"/><path class="cls-14" d="M114.71,188.8a1.15,1.15,0,1,0,1.15-1.19A1.17,1.17,0,0,0,114.71,188.8Z"/><rect class="cls-17" x="182.83" y="180.98" width="23.12" height="3.32" transform="translate(388.78 365.28) rotate(180)"/><rect class="cls-17" x="182.83" y="199.2" width="23.12" height="3.32" transform="translate(388.78 401.71) rotate(180)"/><polygon class="cls-18" points="211 192.34 98.09 192.34 98.09 175.31 99.39 189.99 211 192.34"/><path class="cls-27" d="M119.5,283.16l1.36-.61c-.26-.58-25.29-58.89-20.42-93.06a45.36,45.36,0,0,1,3.26-11.77c17.93,10.78,52.31-.18,46.54-13.51-6.58-15.23-35.5-12.86-47.17,11.31-7.3-5.19-9.92-14-7.59-25.6,9.16-45.64,67.89-39.65,68.48-39.58l.16-1.5c-.61-.06-60.67-6.21-70.1,40.78-3.06,15.25,2.51,23.19,8.41,27.28A47.07,47.07,0,0,0,99,189.27C94.05,223.87,119.24,282.57,119.5,283.16Zm29.38-118.35c4.88,11.29-26.86,21.79-44.08,11.82l-.48-.28C115.31,153.34,142.75,150.63,148.88,164.81Z"/><rect class="cls-16" x="95.62" y="78.37" width="115.57" height="17.03" transform="translate(306.8 173.78) rotate(180)"/><rect class="cls-16" x="95.62" y="95.4" width="115.57" height="17.03" transform="translate(306.8 207.83) rotate(180)"/><rect class="cls-14" x="170.1" y="82.38" width="37.12" height="7.51" transform="translate(377.33 172.27) rotate(180)"/><rect class="cls-14" x="170.1" y="100.16" width="37.12" height="7.51" transform="translate(377.33 207.83) rotate(180)"/><path class="cls-14" d="M146.28,98a1.18,1.18,0,1,0,1.18-1.19A1.18,1.18,0,0,0,146.28,98Z"/><path class="cls-14" d="M142.08,98a1.18,1.18,0,1,0,1.17-1.19A1.18,1.18,0,0,0,142.08,98Z"/><path class="cls-14" d="M137.87,98a1.18,1.18,0,1,0,1.18-1.19A1.18,1.18,0,0,0,137.87,98Z"/><path class="cls-14" d="M133.66,98a1.18,1.18,0,1,0,1.18-1.19A1.18,1.18,0,0,0,133.66,98Z"/><path class="cls-14" d="M129.46,98a1.18,1.18,0,1,0,1.17-1.19A1.18,1.18,0,0,0,129.46,98Z"/><ellipse class="cls-14" cx="126.43" cy="98.03" rx="1.18" ry="1.19"/><path class="cls-14" d="M121,98a1.18,1.18,0,1,0,1.18-1.19A1.18,1.18,0,0,0,121,98Z"/><path class="cls-14" d="M116.84,98A1.18,1.18,0,1,0,118,96.84,1.18,1.18,0,0,0,116.84,98Z"/><ellipse class="cls-14" cx="113.81" cy="98.03" rx="1.18" ry="1.19"/><path class="cls-14" d="M146.28,101.35a1.18,1.18,0,1,0,1.18-1.19A1.19,1.19,0,0,0,146.28,101.35Z"/><path class="cls-14" d="M142.08,101.35a1.18,1.18,0,1,0,1.17-1.19A1.18,1.18,0,0,0,142.08,101.35Z"/><path class="cls-14" d="M137.87,101.35a1.18,1.18,0,1,0,2.35,0,1.18,1.18,0,1,0-2.35,0Z"/><path class="cls-14" d="M133.66,101.35a1.18,1.18,0,1,0,1.18-1.19A1.19,1.19,0,0,0,133.66,101.35Z"/><path class="cls-14" d="M129.46,101.35a1.18,1.18,0,1,0,1.17-1.19A1.18,1.18,0,0,0,129.46,101.35Z"/><path class="cls-14" d="M125.25,101.35a1.18,1.18,0,1,0,2.35,0,1.18,1.18,0,1,0-2.35,0Z"/><path class="cls-14" d="M121,101.35a1.18,1.18,0,1,0,2.35,0,1.18,1.18,0,1,0-2.35,0Z"/><path class="cls-14" d="M116.84,101.35a1.18,1.18,0,1,0,1.17-1.19A1.18,1.18,0,0,0,116.84,101.35Z"/><path class="cls-14" d="M112.63,101.35a1.18,1.18,0,1,0,1.18-1.19A1.19,1.19,0,0,0,112.63,101.35Z"/><path class="cls-14" d="M146.28,104.67a1.18,1.18,0,1,0,1.18-1.19A1.19,1.19,0,0,0,146.28,104.67Z"/><path class="cls-14" d="M142.08,104.67a1.18,1.18,0,1,0,1.17-1.19A1.18,1.18,0,0,0,142.08,104.67Z"/><path class="cls-14" d="M137.87,104.67a1.18,1.18,0,1,0,2.35,0,1.18,1.18,0,1,0-2.35,0Z"/><path class="cls-14" d="M133.66,104.67a1.18,1.18,0,1,0,1.18-1.19A1.19,1.19,0,0,0,133.66,104.67Z"/><path class="cls-14" d="M129.46,104.67a1.18,1.18,0,1,0,1.17-1.19A1.18,1.18,0,0,0,129.46,104.67Z"/><path class="cls-14" d="M125.25,104.67a1.18,1.18,0,1,0,2.35,0,1.18,1.18,0,1,0-2.35,0Z"/><path class="cls-14" d="M121,104.67a1.18,1.18,0,1,0,2.35,0,1.18,1.18,0,1,0-2.35,0Z"/><path class="cls-14" d="M116.84,104.67a1.18,1.18,0,1,0,1.17-1.19A1.18,1.18,0,0,0,116.84,104.67Z"/><path class="cls-14" d="M112.63,104.67a1.18,1.18,0,1,0,1.18-1.19A1.19,1.19,0,0,0,112.63,104.67Z"/><path class="cls-14" d="M146.28,108a1.18,1.18,0,1,0,1.18-1.19A1.18,1.18,0,0,0,146.28,108Z"/><path class="cls-14" d="M142.08,108a1.18,1.18,0,1,0,2.35,0,1.18,1.18,0,1,0-2.35,0Z"/><path class="cls-14" d="M137.87,108a1.18,1.18,0,1,0,1.18-1.19A1.18,1.18,0,0,0,137.87,108Z"/><path class="cls-14" d="M133.66,108a1.18,1.18,0,1,0,1.18-1.19A1.18,1.18,0,0,0,133.66,108Z"/><path class="cls-14" d="M129.46,108a1.18,1.18,0,1,0,2.35,0,1.18,1.18,0,1,0-2.35,0Z"/><path class="cls-14" d="M125.25,108a1.18,1.18,0,1,0,1.18-1.19A1.18,1.18,0,0,0,125.25,108Z"/><path class="cls-14" d="M121,108a1.18,1.18,0,1,0,1.18-1.19A1.18,1.18,0,0,0,121,108Z"/><path class="cls-14" d="M116.84,108a1.18,1.18,0,1,0,2.35,0,1.18,1.18,0,1,0-2.35,0Z"/><path class="cls-14" d="M112.63,108a1.18,1.18,0,1,0,1.18-1.19A1.18,1.18,0,0,0,112.63,108Z"/><path class="cls-14" d="M146.28,81.91a1.18,1.18,0,1,0,1.18-1.19A1.18,1.18,0,0,0,146.28,81.91Z"/><path class="cls-14" d="M142.08,81.91a1.18,1.18,0,1,0,1.17-1.19A1.18,1.18,0,0,0,142.08,81.91Z"/><path class="cls-14" d="M137.87,81.91a1.18,1.18,0,1,0,1.18-1.19A1.18,1.18,0,0,0,137.87,81.91Z"/><path class="cls-14" d="M133.66,81.91a1.18,1.18,0,1,0,1.18-1.19A1.18,1.18,0,0,0,133.66,81.91Z"/><path class="cls-14" d="M129.46,81.91a1.18,1.18,0,1,0,1.17-1.19A1.18,1.18,0,0,0,129.46,81.91Z"/><path class="cls-14" d="M125.25,81.91a1.18,1.18,0,1,0,1.18-1.19A1.18,1.18,0,0,0,125.25,81.91Z"/><path class="cls-14" d="M121,81.91a1.18,1.18,0,1,0,1.18-1.19A1.18,1.18,0,0,0,121,81.91Z"/><path class="cls-14" d="M116.84,81.91A1.18,1.18,0,1,0,118,80.72,1.18,1.18,0,0,0,116.84,81.91Z"/><path class="cls-14" d="M112.63,81.91a1.18,1.18,0,1,0,1.18-1.19A1.18,1.18,0,0,0,112.63,81.91Z"/><path class="cls-14" d="M146.28,85.23A1.18,1.18,0,1,0,147.46,84,1.18,1.18,0,0,0,146.28,85.23Z"/><path class="cls-14" d="M142.08,85.23A1.18,1.18,0,1,0,143.25,84,1.18,1.18,0,0,0,142.08,85.23Z"/><path class="cls-14" d="M137.87,85.23A1.18,1.18,0,1,0,139.05,84,1.18,1.18,0,0,0,137.87,85.23Z"/><path class="cls-14" d="M133.66,85.23A1.18,1.18,0,1,0,134.84,84,1.18,1.18,0,0,0,133.66,85.23Z"/><path class="cls-14" d="M129.46,85.23A1.18,1.18,0,1,0,130.63,84,1.18,1.18,0,0,0,129.46,85.23Z"/><path class="cls-14" d="M125.25,85.23A1.18,1.18,0,1,0,126.43,84,1.18,1.18,0,0,0,125.25,85.23Z"/><path class="cls-14" d="M121,85.23A1.18,1.18,0,1,0,122.22,84,1.18,1.18,0,0,0,121,85.23Z"/><path class="cls-14" d="M116.84,85.23A1.18,1.18,0,1,0,118,84,1.18,1.18,0,0,0,116.84,85.23Z"/><path class="cls-14" d="M112.63,85.23A1.18,1.18,0,1,0,113.81,84,1.18,1.18,0,0,0,112.63,85.23Z"/><path class="cls-14" d="M146.28,88.55a1.18,1.18,0,1,0,1.18-1.19A1.19,1.19,0,0,0,146.28,88.55Z"/><path class="cls-14" d="M142.08,88.55a1.18,1.18,0,1,0,1.17-1.19A1.18,1.18,0,0,0,142.08,88.55Z"/><path class="cls-14" d="M137.87,88.55a1.18,1.18,0,1,0,2.35,0,1.18,1.18,0,1,0-2.35,0Z"/><path class="cls-14" d="M133.66,88.55a1.18,1.18,0,1,0,1.18-1.19A1.19,1.19,0,0,0,133.66,88.55Z"/><path class="cls-14" d="M129.46,88.55a1.18,1.18,0,1,0,1.17-1.19A1.18,1.18,0,0,0,129.46,88.55Z"/><path class="cls-14" d="M125.25,88.55a1.18,1.18,0,1,0,2.35,0,1.18,1.18,0,1,0-2.35,0Z"/><path class="cls-14" d="M121,88.55a1.18,1.18,0,1,0,2.35,0,1.18,1.18,0,1,0-2.35,0Z"/><path class="cls-14" d="M116.84,88.55A1.18,1.18,0,1,0,118,87.36,1.18,1.18,0,0,0,116.84,88.55Z"/><path class="cls-14" d="M112.63,88.55a1.18,1.18,0,1,0,1.18-1.19A1.19,1.19,0,0,0,112.63,88.55Z"/><path class="cls-14" d="M146.28,91.86a1.18,1.18,0,1,0,1.18-1.18A1.18,1.18,0,0,0,146.28,91.86Z"/><path class="cls-14" d="M142.08,91.86a1.18,1.18,0,1,0,1.17-1.18A1.18,1.18,0,0,0,142.08,91.86Z"/><path class="cls-14" d="M137.87,91.86a1.18,1.18,0,1,0,1.18-1.18A1.18,1.18,0,0,0,137.87,91.86Z"/><path class="cls-14" d="M133.66,91.86a1.18,1.18,0,1,0,1.18-1.18A1.18,1.18,0,0,0,133.66,91.86Z"/><path class="cls-14" d="M129.46,91.86a1.18,1.18,0,1,0,1.17-1.18A1.18,1.18,0,0,0,129.46,91.86Z"/><path class="cls-14" d="M125.25,91.86a1.18,1.18,0,1,0,1.18-1.18A1.18,1.18,0,0,0,125.25,91.86Z"/><path class="cls-14" d="M121,91.86a1.18,1.18,0,1,0,1.18-1.18A1.18,1.18,0,0,0,121,91.86Z"/><path class="cls-14" d="M116.84,91.86A1.18,1.18,0,1,0,118,90.68,1.18,1.18,0,0,0,116.84,91.86Z"/><path class="cls-14" d="M112.63,91.86a1.18,1.18,0,1,0,1.18-1.18A1.18,1.18,0,0,0,112.63,91.86Z"/><rect class="cls-17" x="182.35" y="84.04" width="23.66" height="3.32" transform="translate(388.37 171.4) rotate(180)"/><rect class="cls-17" x="182.35" y="102.26" width="23.66" height="3.32" transform="translate(388.37 207.83) rotate(180)"/><polygon class="cls-18" points="211.18 95.4 95.62 95.4 95.62 78.37 96.95 93.05 211.18 95.4"/><rect class="cls-16" x="94.75" y="272.68" width="115.57" height="17.03" transform="translate(305.07 562.39) rotate(180)"/><rect class="cls-16" x="94.75" y="289.71" width="115.57" height="17.03" transform="translate(305.07 596.45) rotate(180)"/><rect class="cls-14" x="169.24" y="276.69" width="37.12" height="7.51" transform="translate(375.59 560.89) rotate(180)"/><rect class="cls-14" x="169.24" y="294.47" width="37.12" height="7.51" transform="translate(375.59 596.45) rotate(180)"/><path class="cls-14" d="M145.42,292.34a1.18,1.18,0,1,0,1.17-1.19A1.18,1.18,0,0,0,145.42,292.34Z"/><path class="cls-14" d="M141.21,292.34a1.18,1.18,0,1,0,1.18-1.19A1.18,1.18,0,0,0,141.21,292.34Z"/><path class="cls-14" d="M137,292.34a1.18,1.18,0,1,0,1.18-1.19A1.18,1.18,0,0,0,137,292.34Z"/><path class="cls-14" d="M132.8,292.34a1.18,1.18,0,1,0,1.17-1.19A1.18,1.18,0,0,0,132.8,292.34Z"/><path class="cls-14" d="M128.59,292.34a1.18,1.18,0,1,0,1.18-1.19A1.18,1.18,0,0,0,128.59,292.34Z"/><path class="cls-14" d="M124.38,292.34a1.18,1.18,0,1,0,1.18-1.19A1.18,1.18,0,0,0,124.38,292.34Z"/><path class="cls-14" d="M120.18,292.34a1.18,1.18,0,1,0,1.17-1.19A1.18,1.18,0,0,0,120.18,292.34Z"/><path class="cls-14" d="M116,292.34a1.18,1.18,0,1,0,1.18-1.19A1.18,1.18,0,0,0,116,292.34Z"/><path class="cls-14" d="M111.76,292.34a1.18,1.18,0,1,0,1.18-1.19A1.18,1.18,0,0,0,111.76,292.34Z"/><path class="cls-14" d="M145.42,295.66a1.18,1.18,0,1,0,1.17-1.19A1.18,1.18,0,0,0,145.42,295.66Z"/><path class="cls-14" d="M141.21,295.66a1.18,1.18,0,1,0,2.35,0,1.18,1.18,0,1,0-2.35,0Z"/><path class="cls-14" d="M137,295.66a1.18,1.18,0,1,0,1.18-1.19A1.19,1.19,0,0,0,137,295.66Z"/><path class="cls-14" d="M132.8,295.66a1.18,1.18,0,1,0,1.17-1.19A1.18,1.18,0,0,0,132.8,295.66Z"/><path class="cls-14" d="M128.59,295.66a1.18,1.18,0,1,0,2.35,0,1.18,1.18,0,1,0-2.35,0Z"/><path class="cls-14" d="M124.38,295.66a1.18,1.18,0,1,0,1.18-1.19A1.19,1.19,0,0,0,124.38,295.66Z"/><path class="cls-14" d="M120.18,295.66a1.18,1.18,0,1,0,1.17-1.19A1.18,1.18,0,0,0,120.18,295.66Z"/><path class="cls-14" d="M116,295.66a1.18,1.18,0,1,0,2.35,0,1.18,1.18,0,1,0-2.35,0Z"/><path class="cls-14" d="M111.76,295.66a1.18,1.18,0,1,0,2.35,0,1.18,1.18,0,1,0-2.35,0Z"/><path class="cls-14" d="M145.42,299a1.18,1.18,0,1,0,2.35,0,1.18,1.18,0,1,0-2.35,0Z"/><path class="cls-14" d="M141.21,299a1.18,1.18,0,1,0,1.18-1.19A1.18,1.18,0,0,0,141.21,299Z"/><path class="cls-14" d="M137,299a1.18,1.18,0,1,0,1.18-1.19A1.18,1.18,0,0,0,137,299Z"/><ellipse class="cls-14" cx="133.97" cy="298.97" rx="1.18" ry="1.19"/><path class="cls-14" d="M128.59,299a1.18,1.18,0,1,0,1.18-1.19A1.18,1.18,0,0,0,128.59,299Z"/><path class="cls-14" d="M124.38,299a1.18,1.18,0,1,0,1.18-1.19A1.18,1.18,0,0,0,124.38,299Z"/><path class="cls-14" d="M120.18,299a1.18,1.18,0,1,0,2.35,0,1.18,1.18,0,1,0-2.35,0Z"/><ellipse class="cls-14" cx="117.15" cy="298.97" rx="1.18" ry="1.19"/><path class="cls-14" d="M111.76,299a1.18,1.18,0,1,0,1.18-1.19A1.18,1.18,0,0,0,111.76,299Z"/><path class="cls-14" d="M145.42,302.29a1.18,1.18,0,1,0,1.17-1.19A1.18,1.18,0,0,0,145.42,302.29Z"/><path class="cls-14" d="M141.21,302.29a1.18,1.18,0,1,0,1.18-1.19A1.18,1.18,0,0,0,141.21,302.29Z"/><path class="cls-14" d="M137,302.29a1.18,1.18,0,1,0,1.18-1.19A1.18,1.18,0,0,0,137,302.29Z"/><path class="cls-14" d="M132.8,302.29A1.18,1.18,0,1,0,134,301.1,1.18,1.18,0,0,0,132.8,302.29Z"/><path class="cls-14" d="M128.59,302.29a1.18,1.18,0,1,0,1.18-1.19A1.18,1.18,0,0,0,128.59,302.29Z"/><path class="cls-14" d="M124.38,302.29a1.18,1.18,0,1,0,1.18-1.19A1.18,1.18,0,0,0,124.38,302.29Z"/><path class="cls-14" d="M120.18,302.29a1.18,1.18,0,1,0,1.17-1.19A1.18,1.18,0,0,0,120.18,302.29Z"/><path class="cls-14" d="M116,302.29a1.18,1.18,0,1,0,1.18-1.19A1.18,1.18,0,0,0,116,302.29Z"/><path class="cls-14" d="M111.76,302.29a1.18,1.18,0,1,0,1.18-1.19A1.18,1.18,0,0,0,111.76,302.29Z"/><path class="cls-14" d="M145.42,276.22a1.18,1.18,0,1,0,1.17-1.19A1.18,1.18,0,0,0,145.42,276.22Z"/><path class="cls-14" d="M141.21,276.22a1.18,1.18,0,1,0,1.18-1.19A1.18,1.18,0,0,0,141.21,276.22Z"/><path class="cls-14" d="M137,276.22a1.18,1.18,0,1,0,1.18-1.19A1.18,1.18,0,0,0,137,276.22Z"/><path class="cls-14" d="M132.8,276.22A1.18,1.18,0,1,0,134,275,1.18,1.18,0,0,0,132.8,276.22Z"/><path class="cls-14" d="M128.59,276.22a1.18,1.18,0,1,0,1.18-1.19A1.18,1.18,0,0,0,128.59,276.22Z"/><path class="cls-14" d="M124.38,276.22a1.18,1.18,0,1,0,1.18-1.19A1.18,1.18,0,0,0,124.38,276.22Z"/><path class="cls-14" d="M120.18,276.22a1.18,1.18,0,1,0,1.17-1.19A1.18,1.18,0,0,0,120.18,276.22Z"/><path class="cls-14" d="M116,276.22a1.18,1.18,0,1,0,1.18-1.19A1.18,1.18,0,0,0,116,276.22Z"/><path class="cls-14" d="M111.76,276.22a1.18,1.18,0,1,0,1.18-1.19A1.18,1.18,0,0,0,111.76,276.22Z"/><path class="cls-14" d="M145.42,279.54a1.18,1.18,0,1,0,1.17-1.19A1.18,1.18,0,0,0,145.42,279.54Z"/><path class="cls-14" d="M141.21,279.54a1.18,1.18,0,1,0,2.35,0,1.18,1.18,0,1,0-2.35,0Z"/><path class="cls-14" d="M137,279.54a1.18,1.18,0,1,0,1.18-1.19A1.19,1.19,0,0,0,137,279.54Z"/><ellipse class="cls-14" cx="133.97" cy="279.54" rx="1.18" ry="1.19"/><path class="cls-14" d="M128.59,279.54a1.18,1.18,0,1,0,2.35,0,1.18,1.18,0,1,0-2.35,0Z"/><path class="cls-14" d="M124.38,279.54a1.18,1.18,0,1,0,1.18-1.19A1.19,1.19,0,0,0,124.38,279.54Z"/><path class="cls-14" d="M120.18,279.54a1.18,1.18,0,1,0,1.17-1.19A1.18,1.18,0,0,0,120.18,279.54Z"/><ellipse class="cls-14" cx="117.15" cy="279.54" rx="1.18" ry="1.19"/><path class="cls-14" d="M111.76,279.54a1.18,1.18,0,1,0,2.35,0,1.18,1.18,0,1,0-2.35,0Z"/><path class="cls-14" d="M145.42,282.85a1.18,1.18,0,1,0,2.35,0,1.18,1.18,0,1,0-2.35,0Z"/><path class="cls-14" d="M141.21,282.85a1.18,1.18,0,1,0,1.18-1.19A1.18,1.18,0,0,0,141.21,282.85Z"/><path class="cls-14" d="M137,282.85a1.18,1.18,0,1,0,1.18-1.19A1.18,1.18,0,0,0,137,282.85Z"/><path class="cls-14" d="M132.8,282.85a1.18,1.18,0,1,0,2.35,0,1.18,1.18,0,1,0-2.35,0Z"/><path class="cls-14" d="M128.59,282.85a1.18,1.18,0,1,0,1.18-1.19A1.18,1.18,0,0,0,128.59,282.85Z"/><path class="cls-14" d="M124.38,282.85a1.18,1.18,0,1,0,1.18-1.19A1.18,1.18,0,0,0,124.38,282.85Z"/><path class="cls-14" d="M120.18,282.85a1.18,1.18,0,1,0,2.35,0,1.18,1.18,0,1,0-2.35,0Z"/><path class="cls-14" d="M116,282.85a1.18,1.18,0,1,0,1.18-1.19A1.18,1.18,0,0,0,116,282.85Z"/><path class="cls-14" d="M111.76,282.85a1.18,1.18,0,1,0,1.18-1.19A1.18,1.18,0,0,0,111.76,282.85Z"/><path class="cls-14" d="M145.42,286.17a1.18,1.18,0,1,0,2.35,0,1.18,1.18,0,1,0-2.35,0Z"/><path class="cls-14" d="M141.21,286.17a1.18,1.18,0,1,0,1.18-1.19A1.18,1.18,0,0,0,141.21,286.17Z"/><path class="cls-14" d="M137,286.17a1.18,1.18,0,1,0,1.18-1.19A1.18,1.18,0,0,0,137,286.17Z"/><path class="cls-14" d="M132.8,286.17a1.18,1.18,0,1,0,2.35,0,1.18,1.18,0,1,0-2.35,0Z"/><path class="cls-14" d="M128.59,286.17a1.18,1.18,0,1,0,1.18-1.19A1.18,1.18,0,0,0,128.59,286.17Z"/><path class="cls-14" d="M124.38,286.17a1.18,1.18,0,1,0,1.18-1.19A1.18,1.18,0,0,0,124.38,286.17Z"/><path class="cls-14" d="M120.18,286.17a1.18,1.18,0,1,0,2.35,0,1.18,1.18,0,1,0-2.35,0Z"/><path class="cls-14" d="M116,286.17a1.18,1.18,0,1,0,1.18-1.19A1.18,1.18,0,0,0,116,286.17Z"/><path class="cls-14" d="M111.76,286.17a1.18,1.18,0,1,0,1.18-1.19A1.18,1.18,0,0,0,111.76,286.17Z"/><rect class="cls-17" x="181.49" y="278.35" width="23.66" height="3.32" transform="translate(386.64 560.01) rotate(180)"/><rect class="cls-17" x="181.49" y="296.56" width="23.66" height="3.32" transform="translate(386.64 596.44) rotate(180)"/><polygon class="cls-18" points="210.32 289.71 94.75 289.71 94.75 272.68 96.08 287.36 210.32 289.71"/></g></g></svg>