<svg xmlns="http://www.w3.org/2000/svg" viewBox="0 0 139.23 31.79"><defs><style>.cls-1{fill:#40e0d0;}.cls-2{fill:#fc7575;}</style></defs><g id="Layer_2" data-name="Layer 2"><g id="Layer_1-2" data-name="Layer 1"><path class="cls-1" d="M36.23,29.06c-1.77,0-2.78-1.85-2.87-3.39C33.14,22.86,36.63,16,39.69,16a4.11,4.11,0,0,1,3,1.23c.49-.66,1-1.45,1.64-2.24l-.09-.18a.46.46,0,0,1,.36-.22c.75,0,2.39.27,2.39,1.19a13.27,13.27,0,0,1-.89,3.39,28.84,28.84,0,0,0-1.64,8.4c0,.17.14,1.14.27,1.14C46,28.71,51,21.32,52,20c.09.13-.31,1.05-.27,1.1.36,0,0,.39.27.48l-.09.84c-1.46,2.63-4.78,7.91-7.13,7.91a3.39,3.39,0,0,1-3.14-3.87,19,19,0,0,1,.8-5h0C41.24,23.17,37.87,29.06,36.23,29.06Zm5.36-10.42a1.26,1.26,0,0,0-.88-.57,1.28,1.28,0,0,0-.8.44c-1.82,1.67-3.81,5.63-3.81,8l.09.31C37.92,24.31,39.91,21.19,41.59,18.64Z"/><path class="cls-1" d="M53.32,21.72v0c.62-1.63,2.61-5.76,5.22-5.85,2.44,0,3.23,3.39,3.06,5-.05.49-.09.62-.09.88v.05a9.18,9.18,0,0,1,3.36-1.14,1.75,1.75,0,0,1,.45,0c.13,0,.26.17.39.22l.05,0c-.05.14-.18.14-.22.22l0,.05s-.09,0-.09,0h-.13l.13.18-.26.08,0,.14h0v0A19.66,19.66,0,0,0,61,23.92a15.28,15.28,0,0,1-5.27,7.38,3.59,3.59,0,0,1-1.59.49h-.18c-1.51,0-1.82-.53-2.83-1.1L51,30.51c0-.13.18-.26.31-.31.27-.44.53-.92.89-1.4l-.09.08-.27-.3v.09c.09.13.14.13.14.21l-.05.05a2.88,2.88,0,0,1-2.26-2.73,14.7,14.7,0,0,1,.45-2.81C50.88,19.39,54.2,11,55,8.22a.88.88,0,0,0-.09-.66,8,8,0,0,1,1.82.66c1.06.61-.84,5.54-1,6.07A57.06,57.06,0,0,0,53.32,21.72ZM52.17,28.8c0-.05,0-.09.09-.13A23.57,23.57,0,0,1,58,23.17c.66-1.1,1.64-5.72.66-5.67-1.85,0-5.4,8-6.19,10-.14.31,0,.57-.14.88l-.13.09,0,.22c0-.05-.18-.09-.22-.14Zm4.38-2.2.31-.4A22.79,22.79,0,0,0,53.41,30l.17.09c.18-.14.31-.18.36-.36v0l.09,0A11.75,11.75,0,0,0,56.55,26.6Z"/><path class="cls-1" d="M76.11,18.77c.36,2.46-1.41,6.2-1.41,9.06,0,.44-.14,1.1.17,1.41H75c1.32-.36,5-6.78,6.19-8.71l.18.18.09-.18a.65.65,0,0,1,.18.44,5,5,0,0,1-.27,1.23l.09-.13v.13c-.09.35-.27.62-.35.92l.31-.39-.23.39.23-.22-.45.71a2.8,2.8,0,0,0-.35.79c-.8,2.15-3.45,5.58-4.74,6.11-.22,0-.48.18-.66.18s-.49-.05-.75-.05c-.45-.17-1.6-.74-1.73-1.23A3.79,3.79,0,0,1,72,27c0-3,2.13-7.74,1.59-8.27-1.5.79-4.91,7.83-6.06,10-.09,0-.22,0-.4,0-.48,0-1.15-.08-1.46-.08-.66,0-.84-.31-1.28-.36a2.69,2.69,0,0,1-.62-2.24c.31-6.73,5.71-17.59,4.87-17.5l.09-.22a6.88,6.88,0,0,1,1.5.31c2.35.79-.75,7.65-1.37,8.79a32.18,32.18,0,0,0-2,7.83C67.84,23,71,17,73.28,17,73.9,17,75.94,17.58,76.11,18.77Z"/><path class="cls-1" d="M89.66,20.79a.72.72,0,0,1-.14.4l.09,0a6.66,6.66,0,0,0-.44,1.28s-.09.09,0,.09a27.93,27.93,0,0,1-5.36,6.5,4.32,4.32,0,0,1-1.86.62A3.62,3.62,0,0,1,79,26c.13-2.94,2.12-7.34,2.48-8.22l.17-.13a13.48,13.48,0,0,1,1.42-.05.8.8,0,0,1,.62.4,1.91,1.91,0,0,1,.13.88c-.75,3.38-2.39,7-2,9.06,0,.13.09.17.22.17,1.38.09,4.43-4.48,7.4-8.18l.22-.17A7.35,7.35,0,0,0,89.66,20.79Zm-6.55-4.66L82.84,16h-.09c-.13,0-.44-.44-.44-.53a2.17,2.17,0,0,1,1.06-1.67,2.19,2.19,0,0,1,.71-.13,1.28,1.28,0,0,1,.93.48l.13.48a.14.14,0,0,1,0,.09c0,.48-1,.92-1.38,1.23l-.7.27Z"/><path class="cls-1" d="M98.29,19.61a.69.69,0,0,0-.09.3,2.76,2.76,0,0,1-.31.62l0,.22.09,0v0L98,21a1.16,1.16,0,0,0-.31.57c.09-.09.13-.31.31-.48v.13c0,.26-1.06,1.89-1.24,2.33.26-.35.48-.7.75-1.06,0,.18-.22.31-.27.44l.14.14a3.25,3.25,0,0,0-.36.52,9.37,9.37,0,0,0-.66,1.1l-.13.05.08.13-.17,0L96,25.1c-.13.14-.18.31-.35.4a15.46,15.46,0,0,1-1.2,1.71C93.33,28.62,92,30.86,90,30.86a2,2,0,0,1-.49,0,3.42,3.42,0,0,1-2.7-3.61C86.82,21.85,89.39,16,91,11a28.5,28.5,0,0,1,1.28-3.78l.09,0c.53.13,1.64.21,2.08,1,.53,1.14-.44,6-2.61,10.86-1.11,2.86-2.13,5.72-2.13,8.49A3.64,3.64,0,0,0,90,29.46h.18a67,67,0,0,0,6.64-8.23,14.52,14.52,0,0,1,1.5-2.15v.22A.85.85,0,0,1,98.29,19.61Z"/><path class="cls-1" d="M98.51,29.06c-1.77,0-2.79-1.85-2.88-3.39C95.41,22.86,98.91,16,102,16a4.15,4.15,0,0,1,3,1.23c.48-.66,1-1.45,1.63-2.24l-.08-.18a.44.44,0,0,1,.35-.22c.75,0,2.39.27,2.39,1.19a13.27,13.27,0,0,1-.89,3.39,28.83,28.83,0,0,0-1.63,8.4c0,.17.13,1.14.26,1.14,1.33,0,6.29-7.39,7.26-8.75.09.13-.31,1.05-.26,1.1.35,0,0,.39.26.48l-.09.84c-1.46,2.63-4.78,7.91-7.12,7.91A3.7,3.7,0,0,1,105.9,30a3.61,3.61,0,0,1-2-3.61,19,19,0,0,1,.8-5h0C103.51,23.17,100.15,29.06,98.51,29.06Zm5.35-10.42a1.24,1.24,0,0,0-.88-.57,1.28,1.28,0,0,0-.8.44c-1.81,1.67-3.81,5.63-3.81,8l.09.31C100.19,24.31,102.18,21.19,103.86,18.64Z"/><path class="cls-1" d="M113.51,27.48l.18,0-.27.35v.05l.58-.53c0,.13,0,.13.09.18l.17-.22.09.13c-.09,0-.18.31-.26.39l.26-.26.13.18-.92,1.4.08.18c.84,0,2.39-.84,2.39-1.76,0-1.41-2.87-4.53-2.87-7.34,0-2.51,3.27-5.46,5.84-5.46.53,0,2.74,1.72,2.74,2.25v.13c-.26.44-.88,2.5-1.54,2.5-.36,0-.4-.13-.67-.26a5.48,5.48,0,0,1,.13-1.1c.14-.7.36-1-.26-1.23-1.33,0-3.45,1.67-3.45,3,0,2.11,2.87,4.66,2.87,7.21,0,2-3,3.7-4.82,3.7-.75,0-2.08-1-2.08-1.81S113.29,27.52,113.51,27.48Z"/><path class="cls-1" d="M133.7,18.77c.35,2.46-1.42,6.2-1.42,9.06,0,.44-.13,1.1.18,1.41h.13c1.33-.36,5-6.78,6.2-8.71l.17.18.09-.18a.65.65,0,0,1,.18.44A5,5,0,0,1,139,22.2l.09-.13v.13c-.09.35-.26.62-.35.92l.31-.39-.22.39.22-.22-.45.71a2.8,2.8,0,0,0-.35.79c-.8,2.15-3.45,5.58-4.74,6.11-.22,0-.48.18-.66.18s-.49-.05-.75-.05c-.45-.17-1.6-.74-1.73-1.23a3.79,3.79,0,0,1-.71-2.46c0-3,2.13-7.74,1.6-8.27-1.51.79-4.92,7.83-6.07,10-.09,0-.22,0-.4,0-.48,0-1.15-.08-1.46-.08-.66,0-.84-.31-1.28-.36a2.69,2.69,0,0,1-.62-2.24c.31-6.73,5.71-17.59,4.87-17.5l.09-.22a6.88,6.88,0,0,1,1.5.31c2.35.79-.75,7.65-1.37,8.79a32.18,32.18,0,0,0-2,7.83c.93-2.24,4.07-8.27,6.37-8.27C131.48,17,133.52,17.58,133.7,18.77Z"/><path class="cls-2" d="M2.68,4.05V6.7H0A2.67,2.67,0,0,1,2.68,4.05ZM0,10.84v-.79A2.67,2.67,0,0,1,2.68,7.4v6.1A2.68,2.68,0,0,1,0,10.84ZM3.66,4.05A2.69,2.69,0,0,1,6.34,6.73v4.13A2.67,2.67,0,0,1,3.66,13.5Z"/><path class="cls-2" d="M7.61,10.82V1.44h2.68V13.5A2.69,2.69,0,0,1,7.61,10.82Zm3.48-6.77h2.68a2.69,2.69,0,0,1-2.68,2.68Z"/><path class="cls-2" d="M14.58,10.82V1.44h2.68V13.5A2.69,2.69,0,0,1,14.58,10.82Zm3.48-6.77h2.68a2.69,2.69,0,0,1-2.68,2.68Z"/><path class="cls-2" d="M24.09,4.05V6.7H21.41A2.67,2.67,0,0,1,24.09,4.05Zm-2.68,6.79v-.79A2.67,2.67,0,0,1,24.09,7.4v6.1A2.68,2.68,0,0,1,21.41,10.84Zm3.66-6.79a2.69,2.69,0,0,1,2.68,2.68v4.13a2.67,2.67,0,0,1-2.68,2.64Z"/><path class="cls-2" d="M29,10.82V0H31.7V13.5A2.69,2.69,0,0,1,29,10.82Zm3.66-6.77A2.67,2.67,0,0,1,35.36,6.7v4.12a2.69,2.69,0,0,1-2.68,2.68Z"/><path class="cls-2" d="M36.45,10.82V6.7a2.67,2.67,0,0,1,2.68-2.65V13.5A2.69,2.69,0,0,1,36.45,10.82Zm3.66-6.77A2.68,2.68,0,0,1,42.79,6.7v4.12a2.69,2.69,0,0,1-2.68,2.68Z"/><path class="cls-2" d="M44,11v-7h2.68v9.63A2.67,2.67,0,0,1,44,11Zm3.66-7h2.68V14.87a2.69,2.69,0,0,1-2.68,2.68Z"/></g></g></svg>